<?xml version="1.0" encoding="UTF-8"?>
<svg version="1.1" xmlns="http://www.w3.org/2000/svg" width="512" height="512">
<path d="M0 0 C1.01790619 0.00215515 2.03581238 0.0043103 3.08456421 0.00653076 C17.69363523 0.05620146 32.02575853 0.30709809 46.375 3.3125 C47.34985352 3.51117676 48.32470703 3.70985352 49.32910156 3.91455078 C97.7109774 14.03517194 141.69928269 35.9516877 177.375 70.3125 C178.3640332 71.26068604 178.3640332 71.26068604 179.37304688 72.22802734 C188.86130305 81.37247479 197.6012044 90.66984009 205.375 101.3125 C206.23306152 102.46355017 207.09113451 103.61459177 207.94921875 104.765625 C213.98736829 112.95680614 219.34595521 121.47054105 224.375 130.3125 C224.73948242 130.94430176 225.10396484 131.57610352 225.47949219 132.22705078 C247.08534998 169.97532572 256.85198095 212.74189997 256.6875 255.9375 C256.68534485 256.95540619 256.6831897 257.97331238 256.68096924 259.02206421 C256.63129854 273.63113523 256.38040191 287.96325853 253.375 302.3125 C253.07698486 303.77478027 253.07698486 303.77478027 252.77294922 305.26660156 C242.65232806 353.6484774 220.7358123 397.63678269 186.375 433.3125 C185.74287598 433.97185547 185.11075195 434.63121094 184.45947266 435.31054688 C175.31502521 444.79880305 166.01765991 453.5387044 155.375 461.3125 C154.22394983 462.17056152 153.07290823 463.02863451 151.921875 463.88671875 C143.73224019 469.92427396 135.22961724 475.30707302 126.375 480.3125 C125.66778809 480.7146875 124.96057617 481.116875 124.23193359 481.53125 C101.09654164 494.5566741 75.92537591 503.30551461 49.9375 508.625 C49.21860596 508.77235596 48.49971191 508.91971191 47.7590332 509.0715332 C33.08339502 511.86090125 18.55831162 512.66142619 3.64770508 512.62817383 C0.70811513 512.6250221 -2.2304558 512.64854926 -5.16992188 512.67382812 C-18.54306192 512.71848737 -31.43916711 511.51301542 -44.625 509.3125 C-46.33055054 509.03031616 -46.33055054 509.03031616 -48.07055664 508.74243164 C-91.33802759 500.97044532 -132.38793216 480.98345309 -165.625 452.3125 C-166.37007813 451.67828125 -167.11515625 451.0440625 -167.8828125 450.390625 C-181.38779833 438.57948485 -194.05918743 425.82889772 -204.625 411.3125 C-205.48149066 410.16255169 -206.33826433 409.01281411 -207.1953125 407.86328125 C-213.23534209 399.67315742 -218.61867614 391.16870382 -223.625 382.3125 C-224.0271875 381.60528809 -224.429375 380.89807617 -224.84375 380.16943359 C-237.8691741 357.03404164 -246.61801461 331.86287591 -251.9375 305.875 C-252.08485596 305.15610596 -252.23221191 304.43721191 -252.3840332 303.6965332 C-255.35789088 288.05024391 -255.99800362 272.57681954 -255.9375 256.6875 C-255.93534485 255.66959381 -255.9331897 254.65168762 -255.93096924 253.60293579 C-255.88129854 238.99386477 -255.63040191 224.66174147 -252.625 210.3125 C-252.42632324 209.33764648 -252.22764648 208.36279297 -252.02294922 207.35839844 C-241.90232806 158.9765226 -219.9858123 114.98821731 -185.625 79.3125 C-184.99287598 78.65314453 -184.36075195 77.99378906 -183.70947266 77.31445312 C-174.56502521 67.82619695 -165.26765991 59.0862956 -154.625 51.3125 C-153.47394983 50.45443848 -152.32290823 49.59636549 -151.171875 48.73828125 C-142.98224019 42.70072604 -134.47961724 37.31792698 -125.625 32.3125 C-124.91778809 31.9103125 -124.21057617 31.508125 -123.48193359 31.09375 C-100.34654164 18.0683259 -75.17537591 9.31948539 -49.1875 4 C-48.46860596 3.85264404 -47.74971191 3.70528809 -47.0090332 3.5534668 C-31.36274391 0.57960912 -15.88931954 -0.06050362 0 0 Z " fill="#42BF9D" transform="translate(255.625,-0.3125)"/>
<path d="M0 0 C14.1260423 10.71630795 24.81516119 25.89660492 28.2890625 43.5234375 C29.29411706 51.8014323 29.97319964 60.91096764 27.734375 69.01953125 C26.68922459 73.11018141 26.09475246 75.86711228 26.71875 80.0625 C30.61056485 86.00576067 36.23536791 90.62922834 41.71875 95.0625 C44.61777197 93.74753571 46.71020882 92.32922974 48.97544861 90.10014343 C49.59636887 89.49353378 50.21728912 88.88692413 50.85702515 88.26193237 C51.52674347 87.59759186 52.19646179 86.93325134 52.88647461 86.2487793 C53.60079147 85.54760483 54.31510834 84.84643036 55.05107117 84.12400818 C57.41366974 81.80083379 59.76817355 79.46969301 62.12109375 77.13671875 C62.92759432 76.33836924 63.73409489 75.54001972 64.56503487 74.7174778 C68.8367188 70.48750633 73.10181547 66.25101198 77.36206055 62.00952148 C81.74762992 57.64602628 86.15601918 53.30637597 90.57013607 48.97178936 C93.97319513 45.62122789 97.35816393 42.25281677 100.73864937 38.87949562 C102.35492422 37.272917 103.9779092 35.67305797 105.60786247 34.08035851 C117.17789628 23.01849344 117.17789628 23.01849344 123.91334534 8.78327942 C125.51180871 3.3834271 127.88354637 0.55673875 132.68359375 -2.26953125 C133.64845703 -2.83994141 134.61332031 -3.41035156 135.60742188 -3.99804688 C136.61353516 -4.57619141 137.61964844 -5.15433594 138.65625 -5.75 C139.65849609 -6.34748047 140.66074219 -6.94496094 141.69335938 -7.56054688 C149.19170536 -11.9375 149.19170536 -11.9375 153.71875 -11.9375 C155.64160156 -10.46875 155.64160156 -10.46875 157.609375 -8.4375 C158.31835938 -7.715625 159.02734375 -6.99375 159.7578125 -6.25 C160.85222656 -5.1053125 160.85222656 -5.1053125 161.96875 -3.9375 C162.71382813 -3.174375 163.45890625 -2.41125 164.2265625 -1.625 C166.06657184 0.26218906 167.89662227 2.15806629 169.71875 4.0625 C165.73121703 14.47477758 159.47037007 28.69509205 148.94824219 33.67407227 C145.14979197 35.10974243 141.78588409 36.0625 137.71875 36.0625 C137.45165285 36.65463665 137.1845557 37.2467733 136.9093647 37.85685349 C135.69816943 40.10062607 134.46823651 41.55962192 132.66891479 43.35284424 C132.04351807 43.9809903 131.41812134 44.60913635 130.77377319 45.25631714 C130.08900909 45.93389069 129.404245 46.61146423 128.69873047 47.30957031 C127.61564606 48.3930928 127.61564606 48.3930928 126.51068115 49.49850464 C124.12381011 51.88398279 121.7299338 54.26229939 119.3359375 56.640625 C117.67926221 58.29357002 116.02302805 59.94695727 114.36721802 61.60076904 C110.00849083 65.95186088 105.64379076 70.29691313 101.27783203 74.64074707 C96.82353495 79.07458371 92.37489582 83.51408909 87.92578125 87.953125 C79.19564145 96.6618166 70.45918306 105.36414008 61.71875 114.0625 C66.57121084 119.91911565 71.81392595 125.26245522 77.22485352 130.6027832 C78.17353741 131.54298255 79.12195524 132.48345041 80.07012939 133.42416382 C82.10027723 135.43769147 84.13180775 137.44980987 86.16430855 139.4609623 C89.38416873 142.64798418 92.59788929 145.84114922 95.81028748 149.03569031 C96.35449563 149.576812 96.89870379 150.11793369 97.4594031 150.67545301 C98.57153979 151.78128279 99.68366792 152.88712117 100.79578769 153.99296796 C108.26548099 161.41978969 115.73964933 168.84201743 123.22827148 176.24975586 C128.29361001 181.26047928 133.34988779 186.28015687 138.39613289 191.31011075 C141.06061963 193.96526384 143.72943489 196.61570304 146.40948677 199.25515175 C148.93124928 201.73881171 151.44086476 204.23414286 153.94203186 206.73853683 C155.28879184 208.08095567 156.64793974 209.41091146 158.0075531 210.74031067 C163.98899316 216.7616196 169.52845892 223.41833598 170.34765625 232.1875 C170.16700203 242.72920532 168.92839081 251.52769577 161.49609375 259.52734375 C154.70301096 265.3947757 147.88104543 267.25546563 139.09375 267.4375 C138.43246094 267.47488281 137.77117187 267.51226562 137.08984375 267.55078125 C128.78680873 267.6942118 122.04399029 263.58428323 116.09945679 258.04447937 C114.49414019 256.45347349 112.90222436 254.84886724 111.32177734 253.2331543 C110.00285492 251.91532707 110.00285492 251.91532707 108.6572876 250.57087708 C106.27265913 248.18338294 103.89960188 245.78542869 101.5311923 243.38191199 C99.04456025 240.8638061 96.54355056 238.36005955 94.0440979 235.85469055 C89.32398445 231.11910001 84.61675105 226.37092198 79.91412604 221.61797124 C74.55517732 216.20293707 69.18184981 210.80226696 63.80732799 205.40269601 C52.76184075 194.30508975 41.73435041 183.18977772 30.71875 172.0625 C32.93979527 169.82303096 35.21778937 167.70049868 37.59375 165.625 C38.29371094 165.00882813 38.99367188 164.39265625 39.71484375 163.7578125 C41.71875 162.0625 41.71875 162.0625 44.65625 160 C47.41203771 157.41122973 47.55663753 155.80069793 47.71875 152.0625 C46.28985352 149.57580352 46.28985352 149.57580352 43.98022461 147.41821289 C43.13862289 146.55454605 42.29702118 145.69087921 41.42991638 144.80104065 C40.50300491 143.8882988 39.57609344 142.97555695 38.62109375 142.03515625 C37.66894061 141.0782863 36.71782853 140.1203794 35.76771545 139.16148376 C33.77372643 137.15718094 31.76764282 135.16606838 29.75219727 133.18334961 C27.17119766 130.64223614 24.62290832 128.07097946 22.0828619 125.489007 C20.12487364 123.50570801 18.15049727 121.53940459 16.17077827 119.57781792 C14.76446142 118.17843338 13.37221778 116.76495191 11.98020935 115.35133362 C11.11654251 114.5097319 10.25287567 113.66813019 9.36303711 112.80102539 C8.60945419 112.05301163 7.85587128 111.30499786 7.07945251 110.53431702 C4.73732985 108.76284433 4.73732985 108.76284433 1.57936096 109.21507263 C-4.81028298 111.1079407 -9.60675281 117.49193371 -12.84375 123.125 C-13.318125 124.094375 -13.7925 125.06375 -14.28125 126.0625 C-15.76625 125.0725 -15.76625 125.0725 -17.28125 124.0625 C-19.37448779 124.00010347 -19.37448779 124.00010347 -21.59375 124.375 C-22.33238281 124.47425781 -23.07101563 124.57351562 -23.83203125 124.67578125 C-25.55577128 124.94795073 -27.27446354 125.25311674 -28.98828125 125.58203125 C-48.38887895 128.41272344 -66.22316766 124.62066095 -82.15234375 112.9609375 C-97.43395346 100.89323485 -107.86116615 84.67266397 -110.28125 65.0625 C-110.39864069 62.29972371 -110.47122064 59.57436714 -110.46875 56.8125 C-110.46939453 56.06685791 -110.47003906 55.32121582 -110.47070312 54.55297852 C-110.41661807 48.88326709 -109.79017388 43.54582161 -108.28125 38.0625 C-105.28125 38.0625 -105.28125 38.0625 -102.42138672 40.62939453 C-101.26067155 41.81097268 -100.10771265 43.00020021 -98.9609375 44.1953125 C-98.3428421 44.82476776 -97.7247467 45.45422302 -97.08792114 46.10275269 C-94.44232231 48.79730631 -91.81437755 51.50882635 -89.18554688 54.21972656 C-79.19459993 64.83006472 -79.19459993 64.83006472 -67.28125 73.0625 C-66.67804932 73.38943848 -66.07484863 73.71637695 -65.45336914 74.05322266 C-57.98761021 77.68375317 -48.66556317 77.25287777 -40.78515625 75.11328125 C-30.7369287 71.13664188 -24.86762864 65.7516958 -20.3046875 55.96875 C-16.83897368 47.02915174 -17.23277061 38.15065477 -21.015625 29.4140625 C-24.35077197 23.21727709 -28.46481948 18.60529607 -33.453125 13.6953125 C-34.1355426 13.01572479 -34.81796021 12.33613708 -35.52105713 11.63595581 C-37.68644349 9.48170055 -39.85870386 7.33453208 -42.03125 5.1875 C-43.50697108 3.72181784 -44.98223646 2.25567671 -46.45703125 0.7890625 C-50.05985194 -2.79179166 -53.66885116 -6.36630964 -57.28125 -9.9375 C-41.51411611 -20.44892259 -13.53444692 -9.42849111 0 0 Z " fill="#E9EEF1" transform="translate(226.28125,128.9375)"/>
<path d="M0 0 C2.240448 1.71232605 2.240448 1.71232605 4.53076172 3.96557617 C5.39450409 4.80702682 6.25824646 5.64847748 7.14816284 6.51542664 C8.06606598 7.43201553 8.98396912 8.34860443 9.9296875 9.29296875 C10.8886427 10.24160535 11.84796843 11.18986752 12.80764771 12.13777161 C14.81335729 14.12407381 16.81091499 16.11817766 18.80371094 18.11743164 C21.35774591 20.67747371 23.93603787 23.21145069 26.52168083 25.73951244 C28.50861324 27.68947504 30.47930902 29.65523645 32.44574356 31.62584877 C33.84855998 33.0243979 35.26696417 34.40725498 36.68551636 35.7898407 C37.53034576 36.64705215 38.37517517 37.50426361 39.24560547 38.38745117 C39.99663544 39.13500168 40.74766541 39.88255219 41.52145386 40.65275574 C43 43 43 43 42.88504028 46.11445618 C41.70827769 49.95111773 39.46359159 51.9722307 36.5 54.5 C35.95972168 54.97993408 35.41944336 55.45986816 34.86279297 55.9543457 C31.76830864 58.65230064 28.61584144 61.01317043 25.125 63.1875 C19.70269154 66.58992502 16.67093615 71.26470257 13.38150024 76.64945984 C10.59121864 80.81811755 7.05834696 84.21296368 3.50927734 87.73364258 C2.76088089 88.48393738 2.01248444 89.23423218 1.2414093 90.00726318 C-1.22222877 92.47459238 -3.69296874 94.93467094 -6.1640625 97.39453125 C-7.88027807 99.10955431 -9.59612371 100.82494764 -11.31161499 102.54069519 C-14.90127099 106.12878937 -18.49425559 109.71350487 -22.08984375 113.2956543 C-26.70651926 117.89529561 -31.31653962 122.50153728 -35.92432594 127.11008167 C-39.4635171 130.64900148 -43.00530394 134.18531355 -46.54798508 137.72073936 C-48.24950663 139.41907218 -49.95041741 141.11801714 -51.65071487 142.81757545 C-54.02065727 145.18535902 -56.39385725 147.54982589 -58.76806641 149.91333008 C-59.47459854 150.6203154 -60.18113068 151.32730072 -60.90907288 152.05570984 C-61.55393143 152.69630341 -62.19878998 153.33689697 -62.8631897 153.99690247 C-63.70436812 154.83556713 -63.70436812 154.83556713 -64.56254005 155.69117451 C-66.37918607 157.34525372 -67.53096252 157.97062779 -69.99609375 158.125 C-84.61249655 157.37664018 -95.95063928 144.57990725 -105.375 134.4375 C-110.9796805 127.93185833 -115.27874832 121.37604027 -116.4263916 112.82177734 C-115.82564395 107.43723472 -113.3111367 105.36510559 -109.51757812 101.70703125 C-108.82817139 101.01499603 -108.13876465 100.32296082 -107.4284668 99.60995483 C-105.14575078 97.32701724 -102.83911131 95.06999187 -100.53125 92.8125 C-98.93470281 91.226479 -97.3396304 89.63897218 -95.74597168 88.05004883 C-91.54270884 83.86784092 -87.31842979 79.70748372 -83.08984375 75.55090332 C-79.6564381 72.16912175 -76.23779295 68.77264032 -72.81995392 65.37513733 C-65.7345544 58.33222385 -58.63919397 51.29926923 -51.51757812 44.29296875 C-50.87308716 43.65587982 -50.22859619 43.01879089 -49.5645752 42.36239624 C-43.70051052 36.60757428 -37.5909397 31.13630677 -31.125 26.0625 C-30.38507813 25.47597656 -29.64515625 24.88945312 -28.8828125 24.28515625 C-27 23 -27 23 -25 23 C-24.61714844 22.17242187 -24.61714844 22.17242187 -24.2265625 21.328125 C-19.99578113 13.29772469 -10.51190393 -3.20457207 0 0 Z " fill="#63798A" transform="translate(232,238)"/>
<path d="M0 0 C3.41421087 1.47717301 5.65133432 3.39383115 8.28172302 6.00756836 C9.12982544 6.84569565 9.97792786 7.68382294 10.85173035 8.54734802 C11.77391861 9.46887161 12.69610687 10.3903952 13.64624023 11.33984375 C14.6333887 12.3193682 15.62093762 13.29848921 16.6088562 14.27723694 C19.28948922 16.93593425 21.96352958 19.60116693 24.63575625 22.26831055 C26.30789699 23.93680476 27.9813279 25.60399387 29.65519905 27.27075195 C35.50185466 33.09291037 41.34276372 38.92077091 47.17895508 44.75341797 C52.60663642 50.17747015 58.0472864 55.58826979 63.49407238 60.99313068 C68.17827653 65.64254782 72.85271953 70.30163248 77.5199104 74.96812725 C80.30366938 77.75109589 83.09120165 80.53000238 85.88882256 83.29904175 C88.524097 85.90799335 91.14693939 88.52885169 93.76108932 91.15896416 C95.16996275 92.5704949 96.59112575 93.96972649 98.01274109 95.36842346 C104.08473114 101.51008467 109.78811219 108.19082638 110.62890625 117.125 C110.44825203 127.66670532 109.20964081 136.46519577 101.77734375 144.46484375 C94.98426096 150.3322757 88.16229543 152.19296563 79.375 152.375 C78.71371094 152.41238281 78.05242187 152.44976562 77.37109375 152.48828125 C69.06805873 152.6317118 62.32524029 148.52178323 56.38070679 142.98197937 C54.77539019 141.39097349 53.18347436 139.78636724 51.60302734 138.1706543 C50.72374573 137.29210281 49.84446411 136.41355133 48.9385376 135.50837708 C46.55390913 133.12088294 44.18085188 130.72292869 41.8124423 128.31941199 C39.32581025 125.8013061 36.82480056 123.29755955 34.3253479 120.79219055 C29.60523445 116.05660001 24.89800105 111.30842198 20.19537604 106.55547124 C14.83642732 101.14043707 9.46309981 95.73976696 4.08857799 90.34019601 C-6.95690925 79.24258975 -17.98439959 68.12727772 -29 57 C-26.77895473 54.76053096 -24.50096063 52.63799868 -22.125 50.5625 C-21.07505859 49.63824219 -21.07505859 49.63824219 -20.00390625 48.6953125 C-18 47 -18 47 -15.0625 44.9375 C-12.81026862 43.11173489 -12.81026862 43.11173489 -12 40.27734375 C-12 36.66012126 -12.20889028 36.29838881 -14.52734375 33.7890625 C-15.64675218 32.7160201 -16.78434319 31.66168925 -17.9375 30.625 C-18.51435547 30.07972656 -19.09121094 29.53445313 -19.68554688 28.97265625 C-21.10845158 27.63206835 -22.55229961 26.31377216 -24 25 C-19.18132753 19.19108254 -13.98743592 13.86934448 -8.625 8.5625 C-7.79355469 7.73556641 -6.96210938 6.90863281 -6.10546875 6.05664062 C-4.0725896 4.03544469 -2.03740037 2.01663665 0 0 Z " fill="#E6ECEF" transform="translate(286,244)"/>
<path d="M0 0 C3.15204981 1.39347376 5.26171773 3.02485079 7.671875 5.4765625 C8.33574219 6.146875 8.99960937 6.8171875 9.68359375 7.5078125 C10.70646484 8.55582031 10.70646484 8.55582031 11.75 9.625 C12.44738281 10.33140625 13.14476562 11.0378125 13.86328125 11.765625 C15.58012488 13.50598703 17.29211832 15.25084981 19 17 C15.01246703 27.41227758 8.75162007 41.63259205 -1.77050781 46.61157227 C-5.56895803 48.04724243 -8.93286591 49 -13 49 C-13.24752203 49.57256153 -13.49504406 50.14512306 -13.75006676 50.73503494 C-15.19864045 53.35995017 -16.87579618 55.12168024 -18.99893188 57.23944092 C-19.83468246 58.07794083 -20.67043304 58.91644073 -21.5315094 59.78034973 C-22.90930824 61.14736275 -22.90930824 61.14736275 -24.31494141 62.54199219 C-25.29102309 63.51750956 -26.26666426 64.49346788 -27.24189758 65.46983337 C-29.8880615 68.11657103 -32.54034587 70.75709755 -35.19376802 73.3965559 C-37.96668658 76.15697073 -40.73394125 78.92305155 -43.50180054 81.6885376 C-48.74284012 86.92336137 -53.98895703 92.15306606 -59.23691499 97.38095307 C-65.2117704 103.33345265 -71.18094679 109.29163323 -77.14965177 115.25029898 C-89.42679086 127.50653378 -101.71104648 139.75561142 -114 152 C-117.11966041 150.51136264 -119.24012613 148.99711308 -121.671875 146.5234375 C-122.66767578 145.51796875 -122.66767578 145.51796875 -123.68359375 144.4921875 C-124.70646484 143.44417969 -124.70646484 143.44417969 -125.75 142.375 C-126.44738281 141.66859375 -127.14476562 140.9621875 -127.86328125 140.234375 C-129.58012488 138.49401297 -131.29211832 136.74915019 -133 135 C-131.65746884 131.97514573 -130.21416412 130.01312176 -127.77642822 127.7865448 C-127.11760525 127.17739636 -126.45878227 126.56824793 -125.77999496 125.94064045 C-124.70215429 124.95718285 -124.70215429 124.95718285 -123.60253906 123.95385742 C-122.04364472 122.50880003 -120.48646035 121.06189625 -118.93078613 119.6133728 C-118.11777542 118.85643002 -117.30476471 118.09948723 -116.46711731 117.31960678 C-112.43270964 113.52641894 -108.4781456 109.65365793 -104.53027344 105.77075195 C-103.7167403 104.97066806 -102.90320717 104.17058416 -102.06502151 103.3462553 C-94.82486265 96.21326312 -87.60626805 89.05835218 -80.39725876 81.89388752 C-75.09504537 76.62505081 -69.77988151 71.37000784 -64.44753051 66.1316703 C-60.19566119 61.95219275 -55.96603715 57.75065172 -51.7435379 53.54149437 C-49.96273805 51.77287824 -48.17509799 50.01111974 -46.38030243 48.25670815 C-34.00267083 36.65042025 -34.00267083 36.65042025 -26.7522583 21.66886902 C-25.21567331 16.21735846 -22.78438296 13.46655365 -17.9296875 10.703125 C-16.95128906 10.13722656 -15.97289062 9.57132813 -14.96484375 8.98828125 C-13.94519531 8.41464844 -12.92554688 7.84101562 -11.875 7.25 C-9.85103637 6.08945875 -7.82757092 4.9280481 -5.8046875 3.765625 C-4.90733887 3.25805664 -4.00999023 2.75048828 -3.08544922 2.22753906 C-1.08206319 1.16562481 -1.08206319 1.16562481 0 0 Z " fill="#FAD362" transform="translate(377,116)"/>
<path d="M0 0 C6.28513004 5.18760582 12.00311158 10.87427266 17.74609375 16.6484375 C18.76720048 17.67141306 19.788531 18.69416528 20.81007385 19.71670532 C23.47711353 22.38753361 26.14113436 25.06135282 28.80450439 27.73583984 C31.5312385 30.47286736 34.26086305 33.20700901 36.99023438 35.94140625 C42.32963089 41.29147548 47.66583652 46.64471273 53 52 C51.17924329 55.93712187 48.62350502 58.63336039 45.5546875 61.640625 C45.02481232 62.16767029 44.49493713 62.69471558 43.94900513 63.23773193 C42.26232175 64.91325675 40.56880436 66.58167722 38.875 68.25 C37.72740612 69.38755851 36.58026539 70.52557436 35.43359375 71.6640625 C32.62761863 74.44803465 29.81549536 77.2256576 27 80 C19.89023429 76.68698572 13.11951812 70.69090544 9 64 C8.39606592 59.32454364 9.37014945 55.55490284 10.56054688 51.03320312 C14.061287 34.83644547 8.99854149 18.87543953 1.390625 4.73046875 C0 2 0 2 0 0 Z " fill="#3EAB8C" transform="translate(243,145)"/>
<path d="M0 0 C3.15204981 1.39347376 5.26171773 3.02485079 7.671875 5.4765625 C8.33574219 6.146875 8.99960937 6.8171875 9.68359375 7.5078125 C10.70646484 8.55582031 10.70646484 8.55582031 11.75 9.625 C12.44738281 10.33140625 13.14476562 11.0378125 13.86328125 11.765625 C15.58012488 13.50598703 17.29211832 15.25084981 19 17 C15.0244127 27.38108495 8.74896918 41.58105127 -1.67285156 46.66040039 C-6.47532633 48.53865315 -9.99988509 49.42586274 -15 48 C-17.91937364 45.94589526 -20.34955728 43.39084028 -22.875 40.875 C-23.57625 40.22273438 -24.2775 39.57046875 -25 38.8984375 C-29.98646102 33.97064073 -29.98646102 33.97064073 -30.05078125 29.359375 C-29.70402344 28.25078125 -29.35726563 27.1421875 -29 26 C-28.78988281 25.05898437 -28.57976562 24.11796875 -28.36328125 23.1484375 C-24.06561983 11.80516759 -13.23238073 7.49100927 -3.0378418 2.11645508 C-1.06713034 1.160593 -1.06713034 1.160593 0 0 Z " fill="#F2C259" transform="translate(377,116)"/>
<path d="M0 0 C2.50456238 1.06680298 2.50456238 1.06680298 3.50456238 2.06680298 C3.62959697 7.12144248 2.4382759 9.54993846 -0.95410156 13.28736877 C-2.51512909 14.88401152 -4.09298677 16.46430281 -5.68367004 18.03140259 C-6.54224609 18.90049255 -7.40082214 19.76958252 -8.28541565 20.66500854 C-10.63623098 23.03766939 -12.99971033 25.39608416 -15.37093139 27.74824977 C-17.85286408 30.21495853 -20.32008674 32.69631119 -22.78970337 35.17533875 C-26.93780094 39.33434055 -31.09836311 43.48055728 -35.26618958 47.61978149 C-40.08259491 52.40351378 -44.87697417 57.20850797 -49.6605255 62.02507585 C-53.77187511 66.16366104 -57.89481183 70.29042923 -62.02764398 74.40756232 C-64.49443165 76.86500269 -66.95700243 79.32630078 -69.40918541 81.79832268 C-72.14250223 84.55220429 -74.89992834 87.28112145 -77.66023254 90.00796509 C-78.46930557 90.8291835 -79.2783786 91.65040192 -80.11196899 92.49650574 C-85.63164468 97.89259836 -85.63164468 97.89259836 -89.92263794 98.75798035 C-92.49543762 98.06680298 -92.49543762 98.06680298 -94.49543762 95.06680298 C-94.22958697 90.92774771 -92.87105514 88.93799897 -89.99880981 86.04205322 C-89.24883224 85.27646088 -88.49885468 84.51086853 -87.72615051 83.72207642 C-86.48333313 82.48433472 -86.48333313 82.48433472 -85.21540833 81.22158813 C-84.3470787 80.34143036 -83.47874908 79.46127258 -82.58410645 78.55444336 C-80.20308185 76.14616343 -77.81331083 73.74732285 -75.41801476 71.35328341 C-73.41905444 69.35349236 -71.4258334 67.34802728 -69.43240517 65.3427242 C-64.73020614 60.61316019 -60.01707248 55.89468709 -55.29743958 51.18252563 C-50.42784903 46.32018326 -45.57897522 41.43784729 -40.73950893 36.54553759 C-36.58295019 32.34523806 -32.41301792 28.15854612 -28.23226422 23.98232877 C-25.73568155 21.48807058 -23.24473747 18.98875868 -20.76688576 16.47587967 C-18.00486954 13.67604767 -15.21526807 10.9047653 -12.42243958 8.13565063 C-11.60401581 7.29834412 -10.78559204 6.4610376 -9.94236755 5.59835815 C-4.31295088 0.08242687 -4.31295088 0.08242687 0 0 Z " fill="#3B566B" transform="translate(246.4954376220703,277.9331970214844)"/>
<path d="M0 0 C0.68228722 2.2637167 0.68228722 2.2637167 1 5 C-0.14058495 6.93904972 -0.14058495 6.93904972 -1.91659546 8.78053284 C-2.56885479 9.47002581 -3.22111412 10.15951878 -3.89313889 10.86990547 C-4.58840305 11.57283667 -5.28366722 12.27576786 -6 13 C-6.64723652 13.67371077 -7.29447304 14.34742153 -7.96132278 15.04154778 C-10.06682095 17.21760042 -12.1972832 19.36655163 -14.33447266 21.51147461 C-15.13700974 22.32058289 -15.93954681 23.12969116 -16.7664032 23.96331787 C-19.39607535 26.61254137 -22.02961147 29.25787287 -24.6640625 31.90234375 C-25.56710491 32.80946169 -26.47014732 33.71657963 -27.40055466 34.65118599 C-31.67978902 38.94905947 -35.96103922 43.24490324 -40.24541152 47.53765482 C-45.17783036 52.47988429 -50.10181785 57.43032326 -55.01898348 62.38772768 C-59.29308794 66.69559889 -63.57808492 70.99246923 -67.86707687 75.28552437 C-69.68614097 77.10946711 -71.5018181 78.93679421 -73.31404495 80.76753044 C-75.84152643 83.31924202 -78.38121439 85.85815653 -80.92431641 88.39428711 C-81.67145401 89.15423477 -82.41859161 89.91418243 -83.18836975 90.69715881 C-83.88350174 91.38534698 -84.57863373 92.07353516 -85.29483032 92.78257751 C-85.89320017 93.38333571 -86.49157001 93.98409391 -87.10807228 94.60305691 C-89.40926708 96.30219062 -91.16907018 96.72828469 -94 97 C-95.8125 95.875 -95.8125 95.875 -97 94 C-97.36135558 90.99176273 -97.35995299 89.52065016 -95.61564064 86.99760818 C-94.63506219 86.02199495 -94.63506219 86.02199495 -93.63467407 85.02667236 C-92.51571999 83.89524055 -92.51571999 83.89524055 -91.37416077 82.74095154 C-90.54508713 81.92828323 -89.71601349 81.11561493 -88.86181641 80.27832031 C-87.99696121 79.41112869 -87.13210602 78.54393707 -86.24104309 77.65046692 C-83.86765966 75.27574472 -81.48368741 72.91269747 -79.09417391 70.55427265 C-76.59738615 68.08502489 -74.11436807 65.60200657 -71.62973022 63.12054443 C-67.45632757 58.9563451 -63.27387492 54.80142521 -59.08496094 50.65283203 C-53.17377303 44.79849035 -47.27991296 38.92693626 -41.38902402 33.05217981 C-37.31123477 28.98683961 -33.2293386 24.92562389 -29.14665937 20.86519527 C-28.15581883 19.87971902 -27.16509195 18.89412846 -26.1744771 17.90842533 C-22.91924221 14.66967 -19.65930456 11.43571153 -16.39697266 8.20410156 C-15.57194748 7.38333633 -14.7469223 6.56257111 -13.89689636 5.7169342 C-12.7694828 4.60242134 -12.7694828 4.60242134 -11.61929321 3.46539307 C-10.63758368 2.49204199 -10.63758368 2.49204199 -9.63604164 1.49902725 C-6.30957862 -1.54885283 -4.2642575 -0.83431125 0 0 Z " fill="#3B566B" transform="translate(233,263)"/>
<path d="M0 0 C4.47413236 2.46605721 7.51255818 5.77511637 9.8125 10.375 C10.51739793 17.48439916 10.82012697 23.91486826 6.33984375 29.78515625 C1.60601512 34.71269653 -2.06261784 35.63154581 -8.75 35.875 C-14.98377711 35.66078086 -18.22356544 34.41201788 -22.61328125 29.9140625 C-26.89420571 25.1628393 -27.50795873 21.77436603 -27.40234375 15.4609375 C-26.77838924 9.40290642 -23.78910005 5.1399455 -19.1875 1.375 C-12.65648401 -2.19857479 -6.7821523 -3.04686917 0 0 Z " fill="#46C09F" transform="translate(372.1875,346.625)"/>
<path d="M0 0 C5.08589845 1.62990217 9.91563463 3.64310421 14.8046875 5.78125 C21.97927469 8.51776736 28.2619794 9.33110514 35.875 9.25 C36.75615479 9.24613281 37.63730957 9.24226562 38.54516602 9.23828125 C43.85556546 9.16752179 48.87391203 8.8245919 54.02734375 7.4375 C56.38894857 6.91373814 58.58880154 6.93290578 61 7 C61.66 8.32 62.32 9.64 63 11 C59.87637431 15.36217054 56.44102258 18.04715021 52.0625 21 C47.59887113 24.02939817 43.75552785 27.08259595 40 31 C38.03935103 32.72247903 36.02489007 34.35183366 34 36 C33.5875 35.5153125 33.175 35.030625 32.75 34.53125 C27.27214842 28.17302941 21.56449092 22.15349222 15.1875 16.6875 C11.66140528 13.64703509 8.31214559 10.4571072 5 7.1875 C4.50653076 6.70692139 4.01306152 6.22634277 3.50463867 5.73120117 C2.29636503 4.52634859 1.14298929 3.2669532 0 2 C0 1.34 0 0.68 0 0 Z " fill="#3DA98C" transform="translate(148,245)"/>
<path d="M0 0 C3.36720387 1.39332574 4.9859524 2.9789286 7 6 C6.43410156 6.55429687 5.86820312 7.10859375 5.28515625 7.6796875 C4.55167969 8.40414063 3.81820313 9.12859375 3.0625 9.875 C2.33160156 10.59429687 1.60070312 11.31359375 0.84765625 12.0546875 C-1.05667999 13.87027192 -1.05667999 13.87027192 -2 16 C-1.41334061 16.26166962 -0.82668121 16.52333923 -0.22224426 16.79293823 C2.12686043 18.06890709 3.67188582 19.4244291 5.5559082 21.31298828 C6.23373856 21.987742 6.91156891 22.66249573 7.60993958 23.35769653 C8.33291733 24.0878598 9.05589508 24.81802307 9.80078125 25.5703125 C10.93268135 26.70289993 10.93268135 26.70289993 12.08744812 27.85836792 C13.68428739 29.45822751 15.27869627 31.06051605 16.87084961 32.66503906 C19.28779873 35.10011349 21.71252165 37.52722151 24.13867188 39.953125 C25.69317839 41.5125524 27.24722932 43.07243411 28.80078125 44.6328125 C29.51768631 45.35083038 30.23459137 46.06884827 30.97322083 46.80862427 C34.96473915 50.83719451 38.78840997 54.95633511 42.47319031 59.26797485 C45.46034999 62.65663273 48.84027309 65.6407228 52.15625 68.703125 C54 71 54 71 53.78125 73.296875 C53 75 53 75 51.30554199 75.77204895 C49 76 49 76 46.68566895 74.27348328 C45.41137024 72.97348137 45.41137024 72.97348137 44.11132812 71.6472168 C43.63924423 71.17265045 43.16716034 70.69808411 42.68077087 70.20913696 C41.11907418 68.63373436 39.57561117 67.04160321 38.03125 65.44921875 C36.94919878 64.35276215 35.86588782 63.25754741 34.78137207 62.16352844 C31.92473605 59.27642804 29.08254151 56.37554166 26.24395752 53.47070312 C21.70375606 48.82833005 17.14423341 44.20500708 12.58067322 39.58561134 C10.98902266 37.96979916 9.40482551 36.34694728 7.82141113 34.72306824 C6.84403488 33.72883433 5.86646536 32.73479037 4.88867188 31.7409668 C4.0391394 30.87191208 3.18960693 30.00285736 2.31433105 29.10746765 C0.21728086 27.1978595 -1.45948484 26.16732752 -4 25 C-5.79598318 23.34007615 -7.5433101 21.6266028 -9.25 19.875 C-10.14203125 18.96492188 -11.0340625 18.05484375 -11.953125 17.1171875 C-12.62859375 16.41851562 -13.3040625 15.71984375 -14 15 C-9.59156563 9.70987876 -4.92440206 4.81191572 0 0 Z " fill="#D5D6DB" transform="translate(276,254)"/>
<path d="M0 0 C3.15204981 1.39347376 5.26171773 3.02485079 7.671875 5.4765625 C8.33574219 6.146875 8.99960937 6.8171875 9.68359375 7.5078125 C10.36550781 8.20648438 11.04742187 8.90515625 11.75 9.625 C12.44738281 10.33140625 13.14476562 11.0378125 13.86328125 11.765625 C15.58012488 13.50598703 17.29211832 15.25084981 19 17 C17.27845212 20.76488042 15.00765886 23.15063897 12 26 C8.84795019 24.60652624 6.73828227 22.97514921 4.328125 20.5234375 C3.66425781 19.853125 3.00039062 19.1828125 2.31640625 18.4921875 C1.63449219 17.79351562 0.95257813 17.09484375 0.25 16.375 C-0.79607422 15.31539063 -0.79607422 15.31539063 -1.86328125 14.234375 C-3.58012488 12.49401297 -5.29211832 10.74915019 -7 9 C-5.27845212 5.23511958 -3.00765886 2.84936103 0 0 Z " fill="#F5C35A" transform="translate(251,242)"/>
<path d="M0 0 C3.86838005 0.40001369 5.67708142 2.32730459 8.328125 5.03515625 C9.52695313 6.24848633 9.52695313 6.24848633 10.75 7.48632812 C11.575 8.33646484 12.4 9.18660156 13.25 10.0625 C14.51070312 11.34350586 14.51070312 11.34350586 15.796875 12.65039062 C17.87147597 14.76035412 19.93875832 16.87699708 22 19 C20.35 20.98 18.7 22.96 17 25 C12.74750109 21.56528934 8.95721022 18.02982167 5.4921875 13.796875 C4.45263706 12.54506033 3.37037384 11.3280223 2.2578125 10.140625 C1.69835937 9.53734375 1.13890625 8.9340625 0.5625 8.3125 C0.04816406 7.77238281 -0.46617187 7.23226562 -0.99609375 6.67578125 C-2 5 -2 5 -1.72265625 2.85546875 C-1 1 -1 1 0 0 Z " fill="#D4D6DB" transform="translate(227,225)"/>
<path d="M0 0 C3.36720387 1.39332574 4.9859524 2.9789286 7 6 C6.49210937 6.49628906 5.98421875 6.99257813 5.4609375 7.50390625 C1.07156726 11.83573792 -3.05208718 16.26250461 -7 21 C-9.31 19.02 -11.62 17.04 -14 15 C-9.59156563 9.70987876 -4.92440206 4.81191572 0 0 Z " fill="#D3D5DA" transform="translate(276,254)"/>
<path d="M0 0 C1.65 1.32 3.3 2.64 5 4 C4.58657567 9.18659613 3.2190138 11.35978999 -0.5625 14.875 C-1.38878906 15.65617187 -2.21507812 16.43734375 -3.06640625 17.2421875 C-3.70449219 17.82226562 -4.34257812 18.40234375 -5 19 C-6.17539996 18.07347299 -7.34010577 17.13336613 -8.5 16.1875 C-9.1496875 15.66542969 -9.799375 15.14335937 -10.46875 14.60546875 C-12 13 -12 13 -12 10 C-10.59791363 9.03189274 -9.18771904 8.07290189 -7.734375 7.18359375 C-4.77655638 5.1650824 -2.46656286 2.58401824 0 0 Z " fill="#DDE3E6" transform="translate(270,289)"/>
<path d="M0 0 C4 2 4 2 7 6 C4.03 8.97 1.06 11.94 -2 15 C-6 13 -6 13 -9 9 C-6.03 6.03 -3.06 3.06 0 0 Z " fill="#E1E6E8" transform="translate(286,244)"/>
<path d="M0 0 C1.98 1.65 3.96 3.3 6 5 C4.35 6.65 2.7 8.3 1 10 C-0.65 8.02 -2.3 6.04 -4 4 C-2.68 2.68 -1.36 1.36 0 0 Z " fill="#BBBFCC" transform="translate(267,263)"/>
<path d="M0 0 C2.5 1.75 2.5 1.75 5 4 C5 5.32 5 6.64 5 8 C1.63279613 6.60667426 0.0140476 5.0210714 -2 2 C-1.34 1.34 -0.68 0.68 0 0 Z " fill="#D0D2D7" transform="translate(270,289)"/>
</svg>
